Complete name                    : D:\TOORENT FOR UPLOAD\Next BRRip Hindi Kishan H Upload  by RoY StaR\Next Part 1.mkv
Format                           : Matroska
File size                        : 422 MiB
Duration                         : 47mn 56s
Overall bit rate                 : 638 Kbps
Encoded date                     : UTC 2010-06-08 03:34:03
Writing application              : mkvmerge v2.4.1 ('Use Me') built on Dec  5 2008 15:43:32
Writing library                  : libebml v0.7.7 + libmatroska v0.8.1

Video
ID                               : 1
Format                           : AVC
Format/Info                      : Advanced Video Codec
Format profile                   : High@L4.0
Format settings, CABAC           : Yes
Format settings, ReFrames        : 8 frames
Codec ID                         : V_MPEG4/ISO/AVC
Duration                         : 47mn 56s
Bit rate                         : 562 Kbps
Width                            : 1 280 pixels
Height                           : 528 pixels
Display aspect ratio             : 2.40:1
Frame rate                       : 23.976 fps
Color space                      : YUV
Chroma subsampling               : 4:2:0
Bit depth                        : 8 bits
Scan type                        : Progressive
Bits/(Pixel*Frame)               : 0.035
Stream size                      : 193 MiB (88%)

Audio
ID                               : 2
Format                           : MPEG Audio
Format version                   : Version 1
Format profile                   : Layer 3
Mode                             : Joint stereo
Mode extension                   : MS Stereo
Codec ID                         : A_MPEG/L3
Codec ID/Hint                    : MP3
Duration                         : 47mn 56s
Bit rate mode                    : Constant
Bit rate                         : 64.0 Kbps
Channel(s)                       : 2 channels
Sampling rate                    : 44.1 KHz
Compression mode                 : Lossy
Delay relative to video          : 700ms
Stream size                      : 21.9 MiB (10%)
